<svg width="176" height="35" viewBox="0 0 176 35" fill="none" xmlns="http://www.w3.org/2000/svg">
<path d="M1.35 15.6C1.35 13.28 1.85 11.21 2.85 9.39C3.87 7.57 5.27 6.15 7.05 5.13C8.85 4.11 10.89 3.6 13.17 3.6C14.43 3.6 15.68 3.76 16.92 4.08C18.16 4.4 19.27 4.85 20.25 5.43H20.37L21.69 3.9H22.59V11.25H21.15C20.71 10.09 20.27 9.18 19.83 8.52C19.13 7.44 18.3 6.65 17.34 6.15C16.38 5.63 15.27 5.37 14.01 5.37C11.69 5.37 9.94 6.21 8.76 7.89C7.6 9.55 7.02 12.02 7.02 15.3C7.02 18.62 7.6 21.15 8.76 22.89C9.94 24.63 11.65 25.5 13.89 25.5C15.11 25.5 16.22 25.24 17.22 24.72C18.22 24.18 19.06 23.42 19.74 22.44C20.48 21.34 20.98 20.09 21.24 18.69H22.59V27H21.48L20.25 25.02C19.09 25.82 17.93 26.4 16.77 26.76C15.63 27.12 14.4 27.3 13.08 27.3C10.78 27.3 8.74 26.81 6.96 25.83C5.2 24.85 3.82 23.48 2.82 21.72C1.84 19.94 1.35 17.9 1.35 15.6ZM34.0343 10.8C35.8143 10.8 37.3443 11.17 38.6243 11.91C39.9243 12.63 40.9043 13.62 41.5643 14.88C42.2443 16.12 42.5843 17.51 42.5843 19.05C42.5843 20.59 42.2443 21.99 41.5643 23.25C40.9043 24.49 39.9243 25.48 38.6243 26.22C37.3443 26.94 35.8143 27.3 34.0343 27.3C32.2543 27.3 30.7143 26.94 29.4143 26.22C28.1343 25.48 27.1543 24.49 26.4743 23.25C25.8143 21.99 25.4843 20.59 25.4843 19.05C25.4843 17.51 25.8143 16.12 26.4743 14.88C27.1543 13.62 28.1343 12.63 29.4143 11.91C30.7143 11.17 32.2543 10.8 34.0343 10.8ZM30.5243 19.05C30.5243 20.87 30.7743 22.45 31.2743 23.79C31.7943 25.11 32.7143 25.77 34.0343 25.77C35.3343 25.77 36.2443 25.1 36.7643 23.76C37.2843 22.42 37.5443 20.85 37.5443 19.05C37.5443 17.25 37.2843 15.69 36.7643 14.37C36.2643 13.03 35.3543 12.36 34.0343 12.36C32.7143 12.36 31.7943 13.03 31.2743 14.37C30.7743 15.69 30.5243 17.25 30.5243 19.05ZM51.6023 27.3C50.3423 27.3 49.1823 26.96 48.1223 26.28C47.0823 25.58 46.2623 24.62 45.6623 23.4C45.0623 22.18 44.7623 20.82 44.7623 19.32C44.7623 17.66 45.1023 16.19 45.7823 14.91C46.4823 13.61 47.4523 12.6 48.6923 11.88C49.9323 11.16 51.3523 10.8 52.9523 10.8C54.1523 10.8 55.3123 11.05 56.4323 11.55V5.1L53.8823 4.26V3.57L60.4223 2.1H61.0823V24.06L63.4523 24.81V25.44L57.2123 27.3H56.6723V25.47L56.5223 25.41C55.9023 26.01 55.1623 26.48 54.3023 26.82C53.4623 27.14 52.5623 27.3 51.6023 27.3ZM53.5223 25.14C54.6823 25.14 55.6523 24.62 56.4323 23.58V16.14C56.4323 15.02 56.1623 14.12 55.6223 13.44C55.1023 12.76 54.4123 12.42 53.5523 12.42C52.4523 12.42 51.5623 13.01 50.8823 14.19C50.2223 15.35 49.8923 16.89 49.8923 18.81C49.8923 20.77 50.2123 22.32 50.8523 23.46C51.4923 24.58 52.3823 25.14 53.5223 25.14ZM77.8521 14.52C78.0321 14.1 78.1221 13.75 78.1221 13.47C78.1221 13.07 77.9221 12.76 77.5221 12.54C77.1421 12.32 76.5421 12.19 75.7221 12.15V11.1H82.9521V12.15C82.1921 12.29 81.6121 12.45 81.2121 12.63C80.8321 12.79 80.5321 13.01 80.3121 13.29C80.1121 13.57 79.8921 13.99 79.6521 14.55L72.7221 31.23C72.1821 32.53 71.5321 33.46 70.7721 34.02C70.0121 34.54 69.0221 34.8 67.8021 34.8C66.7621 34.8 65.9121 34.57 65.2521 34.11C64.5921 33.67 64.2621 33.04 64.2621 32.22C64.2621 31.66 64.4421 31.2 64.8021 30.84C65.1821 30.5 65.6421 30.33 66.1821 30.33C66.6421 30.33 67.0421 30.46 67.3821 30.72C67.7421 30.98 67.9921 31.36 68.1321 31.86C68.2721 32.34 68.4021 32.65 68.5221 32.79C68.6621 32.93 68.8721 33 69.1521 33C69.4921 33 69.8321 32.82 70.1721 32.46C70.5321 32.1 70.8221 31.62 71.0421 31.02L72.2421 27.84L65.8221 13.35C65.6621 12.97 65.4021 12.7 65.0421 12.54C64.7021 12.36 64.1621 12.23 63.4221 12.15V11.1H73.2021V12.15C72.4421 12.21 71.8921 12.31 71.5521 12.45C71.2321 12.59 71.0721 12.81 71.0721 13.11C71.0721 13.31 71.1121 13.49 71.1921 13.65L74.6721 21.87H74.8221L77.8521 14.52ZM90.4383 5.01V3.9H99.5283L105.768 19.38H105.948L112.458 3.9H120.168V5.01L117.648 5.61V25.26L120.168 25.89V27H109.938V25.89L112.488 25.26V9.18H112.368L104.838 27.3H103.398L95.2683 8.37H95.1483V25.32L97.7883 25.89V27H90.4083V25.89L93.0783 25.32V5.58L90.4383 5.01ZM124.406 6.09C124.406 5.41 124.636 4.83 125.096 4.35C125.576 3.85 126.206 3.6 126.986 3.6C127.786 3.6 128.426 3.85 128.906 4.35C129.406 4.83 129.656 5.41 129.656 6.09C129.656 6.75 129.416 7.33 128.936 7.83C128.476 8.31 127.826 8.55 126.986 8.55C126.186 8.55 125.556 8.31 125.096 7.83C124.636 7.33 124.406 6.75 124.406 6.09ZM131.756 27H122.156V25.95L124.706 25.35V13.77L122.156 12.96V12.24L128.726 10.8H129.356V25.35L131.756 25.95V27ZM142.356 27H132.756V25.95L135.306 25.35V5.07L132.756 4.26V3.54L139.326 2.1H139.956V25.35L142.356 25.95V27ZM159.919 18.3H148.999C149.019 20.3 149.419 21.79 150.199 22.77C150.979 23.73 152.149 24.21 153.709 24.21C154.629 24.21 155.529 24.04 156.409 23.7C157.309 23.36 158.039 22.87 158.599 22.23L158.809 21.99L159.649 22.71L159.499 23.07C158.959 24.39 158.029 25.43 156.709 26.19C155.409 26.93 153.929 27.3 152.269 27.3C150.629 27.3 149.179 26.97 147.919 26.31C146.679 25.63 145.719 24.69 145.039 23.49C144.359 22.27 144.019 20.87 144.019 19.29C144.019 17.63 144.399 16.16 145.159 14.88C145.919 13.58 146.979 12.58 148.339 11.88C149.699 11.16 151.259 10.8 153.019 10.8C155.299 10.8 157.039 11.42 158.239 12.66C159.439 13.9 160.079 15.72 160.159 18.12L159.919 18.3ZM155.179 16.65C155.259 16.41 155.299 16.03 155.299 15.51C155.299 14.47 155.069 13.68 154.609 13.14C154.149 12.6 153.489 12.33 152.629 12.33C151.609 12.33 150.789 12.72 150.169 13.5C149.569 14.28 149.199 15.4 149.059 16.86L155.179 16.65ZM169.175 10.8C169.935 10.8 170.675 10.85 171.395 10.95C172.115 11.03 172.695 11.15 173.135 11.31V15.48H171.965C171.685 13.36 170.685 12.3 168.965 12.3C168.285 12.3 167.735 12.47 167.315 12.81C166.895 13.13 166.685 13.56 166.685 14.1C166.685 14.68 166.905 15.15 167.345 15.51C167.785 15.87 168.495 16.29 169.475 16.77C170.415 17.23 171.175 17.66 171.755 18.06C172.355 18.44 172.865 18.97 173.285 19.65C173.705 20.33 173.915 21.17 173.915 22.17C173.915 23.79 173.345 25.05 172.205 25.95C171.065 26.85 169.465 27.3 167.405 27.3C166.625 27.3 165.805 27.24 164.945 27.12C164.085 27.02 163.345 26.87 162.725 26.67L162.545 21.78H163.835C163.915 23.08 164.255 24.08 164.855 24.78C165.455 25.46 166.275 25.8 167.315 25.8C168.075 25.8 168.685 25.6 169.145 25.2C169.625 24.8 169.865 24.28 169.865 23.64C169.865 23 169.625 22.49 169.145 22.11C168.685 21.71 167.945 21.24 166.925 20.7C166.005 20.24 165.255 19.82 164.675 19.44C164.095 19.04 163.595 18.51 163.175 17.85C162.775 17.19 162.575 16.38 162.575 15.42C162.575 13.9 163.125 12.75 164.225 11.97C165.345 11.19 166.995 10.8 169.175 10.8Z" fill="#3A3E41"/>
</svg>
